<?xml version="1.0" standalone="no"?><!DOCTYPE svg PUBLIC "-//W3C//DTD SVG 1.1//EN" "http://www.w3.org/Graphics/SVG/1.1/DTD/svg11.dtd"><svg width="200" height="200" viewBox="0 0 200 200" version="1.1" xmlns="http://www.w3.org/2000/svg" xmlns:xlink="http://www.w3.org/1999/xlink"><defs><style type="text/css"><![CDATA[
@font-face { font-family: ifont; src: url("http://at.alicdn.com/t/font_1442373896_4754455.eot?#iefix") format("embedded-opentype"), url("http://at.alicdn.com/t/font_1442373896_4754455.woff") format("woff"), url("http://at.alicdn.com/t/font_1442373896_4754455.ttf") format("truetype"), url("http://at.alicdn.com/t/font_1442373896_4754455.svg#ifont") format("svg"); }

]]></style></defs><g class="transform-group"><g transform="scale(0.1953125, 0.1953125)"><path d="M156.512125 63.883983c-24.210401 0-48.285726 9.969049-65.402569 27.098171C73.993736 108.098997 64.011384 132.174322 64.011384 156.384723c0 24.223704 9.969049 48.300053 27.098171 65.429175 17.116843 17.102516 41.192168 27.084868 65.402569 27.084868s48.285726-9.982352 65.415872-27.084868c17.130146-17.130146 27.099195-41.205471 27.099195-65.429175 0-24.210401-9.969049-48.285726-27.099195-65.401546C204.797851 73.853032 180.749132 63.883983 156.512125 63.883983zM914.549727 92.272543 358.093213 92.272543c-24.035416 0-43.704384 19.682271-43.704384 43.704384l0 35.939537c0 24.035416 19.669992 43.691081 43.704384 43.691081l556.456514 0c24.034393 0 43.704384-19.655665 43.704384-43.691081l0-35.939537C958.254112 111.955838 938.58412 92.272543 914.549727 92.272543zM914.549727 464.775442 358.093213 464.775442c-24.035416 0-43.704384 19.668968-43.704384 43.704384l0 35.939537c0 24.034393 19.669992 43.703361 43.704384 43.703361l556.456514 0c24.034393 0 43.704384-19.668968 43.704384-43.703361l0-35.939537C958.254112 484.444411 938.58412 464.775442 914.549727 464.775442zM914.549727 803.944142 358.093213 803.944142c-24.035416 0-43.704384 19.669992-43.704384 43.705408l0 35.925211c0 24.035416 19.669992 43.704384 43.704384 43.704384l556.456514 0c24.034393 0 43.704384-19.668968 43.704384-43.704384l0-35.925211C958.254112 823.614134 938.58412 803.944142 914.549727 803.944142zM156.512125 416.046624c-24.210401 0-48.285726 9.981329-65.402569 27.111474C73.993736 460.273918 64.011384 484.350267 64.011384 508.559645s9.969049 48.285726 27.098171 65.415872c17.116843 17.116843 41.192168 27.084868 65.402569 27.084868s48.285726-9.954723 65.415872-27.084868 27.099195-41.206494 27.099195-65.415872-9.969049-48.285726-27.099195-65.402569C204.797851 426.027953 180.749132 416.046624 156.512125 416.046624zM156.512125 773.111926c-24.210401 0-48.285726 9.968026-65.402569 27.084868C73.993736 817.325917 64.011384 841.402265 64.011384 865.612667c0 24.223704 9.969049 48.299029 27.098171 65.415872 17.116843 17.115819 41.192168 27.098171 65.402569 27.098171s48.285726-9.969049 65.415872-27.098171c17.130146-17.130146 27.099195-41.192168 27.099195-65.415872 0-24.210401-9.969049-48.28675-27.099195-65.415872C204.797851 783.079952 180.749132 773.111926 156.512125 773.111926z" fill="#000000"></path></g></g></svg>