<?xml version="1.0" standalone="no"?><!DOCTYPE svg PUBLIC "-//W3C//DTD SVG 1.1//EN" "http://www.w3.org/Graphics/SVG/1.1/DTD/svg11.dtd"><svg width="200" height="200" viewBox="0 0 200 200" version="1.1" xmlns="http://www.w3.org/2000/svg" xmlns:xlink="http://www.w3.org/1999/xlink"><defs><style type="text/css"><![CDATA[
@font-face { font-family: ifont; src: url("http://at.alicdn.com/t/font_1442373896_4754455.eot?#iefix") format("embedded-opentype"), url("http://at.alicdn.com/t/font_1442373896_4754455.woff") format("woff"), url("http://at.alicdn.com/t/font_1442373896_4754455.ttf") format("truetype"), url("http://at.alicdn.com/t/font_1442373896_4754455.svg#ifont") format("svg"); }

]]></style></defs><g class="transform-group"><g transform="scale(0.1953125, 0.1953125)"><path d="M602.138438 682.193217c-10.530844 10.646478-10.530844 27.90249 0 38.548968 10.532891 10.646478 27.604708 10.646478 38.136575 0l186.027857-188.098006c5.615904-5.67014 8.004301-13.20986 7.635911-20.643156 0.36839-7.435343-2.020006-14.965853-7.635911-20.644179L640.27399 303.258839c-10.531867-10.646478-27.603685-10.646478-38.136575 0-10.530844 10.644431-10.530844 27.901467 0 38.547944l141.361565 142.93234L107.55818 484.739123c-14.886035 0-26.963095 12.209066-26.963095 27.2619 0 15.051811 12.07706 27.2619 26.963095 27.2619l635.9408 0L602.138438 682.193217zM835.552535 103.065354 296.297798 103.065354c-59.560514 0-107.851357 48.825009-107.851357 109.044532l0 109.052718 53.925167 0L242.371608 212.109885c0-30.105668 24.14491-54.521754 53.925167-54.521754l539.255761 0c29.780257 0 53.924143 24.416086 53.924143 54.521754l0 599.781252c0 30.103622-24.14491 54.521754-53.924143 54.521754L296.297798 866.412892c-29.780257 0-53.925167-24.418133-53.925167-54.521754l0-109.053742-53.925167 0 0 109.053742c0 60.2185 48.28982 109.044532 107.851357 109.044532l539.255761 0c59.5687 0 107.850333-48.826032 107.850333-109.044532L943.404915 212.109885C943.402869 151.890362 895.121236 103.065354 835.552535 103.065354z" fill="#a9b7b7"></path></g></g></svg>