<?xml version="1.0" standalone="no"?><!DOCTYPE svg PUBLIC "-//W3C//DTD SVG 1.1//EN" "http://www.w3.org/Graphics/SVG/1.1/DTD/svg11.dtd"><svg width="200" height="200" viewBox="0 0 200 200" version="1.1" xmlns="http://www.w3.org/2000/svg" xmlns:xlink="http://www.w3.org/1999/xlink"><defs><style type="text/css"><![CDATA[
@font-face { font-family: ifont; src: url("http://at.alicdn.com/t/font_1442373896_4754455.eot?#iefix") format("embedded-opentype"), url("http://at.alicdn.com/t/font_1442373896_4754455.woff") format("woff"), url("http://at.alicdn.com/t/font_1442373896_4754455.ttf") format("truetype"), url("http://at.alicdn.com/t/font_1442373896_4754455.svg#ifont") format("svg"); }

]]></style></defs><g class="transform-group"><g transform="scale(0.1953125, 0.1953125)"><path d="M272.035208 496.231875l479.209176 0 0 59.901275-479.209176 0 0-59.901275ZM481.689159 286.576901l59.901275 0 0 479.212246-59.901275 0 0-479.212246ZM511.999488 51.187823c-254.480902 0-460.810131 206.331275-460.810131 460.812177 0 254.479879 206.329229 460.810131 460.810131 460.810131 254.479879 0 460.809107-206.330252 460.809107-460.810131C972.808596 257.519098 766.478344 51.187823 511.999488 51.187823zM511.999488 1016.72327c-278.70563 0-504.72327-226.016617-504.72327-504.722246 0-278.70563 226.016617-504.724293 504.72327-504.724293 278.706653 0 504.72327 226.01764 504.72327 504.724293C1016.721735 790.706653 790.706141 1016.72327 511.999488 1016.72327z" fill="#11cd6e"></path></g></g></svg>