<?xml version="1.0" standalone="no"?><!DOCTYPE svg PUBLIC "-//W3C//DTD SVG 1.1//EN" "http://www.w3.org/Graphics/SVG/1.1/DTD/svg11.dtd"><svg width="200" height="200" viewBox="0 0 200 200" version="1.1" xmlns="http://www.w3.org/2000/svg" xmlns:xlink="http://www.w3.org/1999/xlink"><defs><style type="text/css"><![CDATA[
@font-face { font-family: ifont; src: url("http://at.alicdn.com/t/font_1442373896_4754455.eot?#iefix") format("embedded-opentype"), url("http://at.alicdn.com/t/font_1442373896_4754455.woff") format("woff"), url("http://at.alicdn.com/t/font_1442373896_4754455.ttf") format("truetype"), url("http://at.alicdn.com/t/font_1442373896_4754455.svg#ifont") format("svg"); }

]]></style></defs><g class="transform-group"><g transform="scale(0.1953125, 0.1953125)"><path d="M512 1008C238.064 1008 16 785.936 16 512 16 238.064 238.064 16 512 16c273.936 0 496 222.064 496 496C1008 785.936 785.936 1008 512 1008zM512 78C272.304 78 78 272.304 78 512c0 239.696 194.304 434 434 434 239.696 0 434-194.304 434-434C946 272.304 751.696 78 512 78zM745.104 573.28l-233.824 0-60.544 0 0-60.544 0-233.824c0-16.72 13.552-30.272 30.272-30.272s30.272 13.552 30.272 30.272l0 233.824 233.824 0c16.72 0 30.272 13.552 30.272 30.272C775.376 559.712 761.824 573.264 745.104 573.28z" fill="#a9b7b7"></path></g></g></svg>